<?xml version="1.0" encoding="UTF-8"?>
<svg width="190px" height="50px" viewBox="0 0 190 50" version="1.1" xmlns="http://www.w3.org/2000/svg" xmlns:xlink="http://www.w3.org/1999/xlink">
    <!-- Generator: Sketch 54 (76480) - https://sketchapp.com -->
    <title>ebet_logo复制 3</title>
    <desc>Created with Sketch.</desc>
    <g id="页面1" stroke="none" stroke-width="1" fill="none" fill-rule="evenodd">
        <g id="场馆" transform="translate(-1815.000000, -2478.000000)" fill="#FFFFFF">
            <g id="矩形-4复制-7" transform="translate(1733.000000, 1855.000000)">
                <g id="编组-22" transform="translate(78.000000, 622.000000)">
                    <path d="M45.5500705,1 L49.922426,1 L49.922426,5.37235543 L45.5500705,5.37235543 L45.5500705,1 Z M5,6.07757405 L9.37235543,6.07757405 L9.37235543,10.4499295 L5,10.4499295 L5,6.07757405 Z M10.077574,46.6276446 L14.4499295,46.6276446 L14.4499295,51 L10.077574,51 L10.077574,46.6276446 Z M35.3949224,36.4724965 L39.7672779,36.4724965 L39.7672779,40.8448519 L35.3949224,40.8448519 L35.3949224,36.4724965 Z M19.5275035,1 L19.5275035,5.37235543 L15.1551481,5.37235543 L15.1551481,1 L19.5275035,1 Z M14.4499295,1 L14.4499295,5.37235543 L10.077574,5.37235543 L10.077574,1 L14.4499295,1 Z M20.2327221,5.37235543 L20.2327221,1 L24.6050776,1 L24.6050776,5.37235543 L20.2327221,5.37235543 Z M29.6826516,1 L29.6826516,5.37235543 L25.3102962,5.37235543 L25.3102962,1 L29.6826516,1 Z M34.7602257,1 L34.7602257,5.37235543 L30.3878702,5.37235543 L30.3878702,1 L34.7602257,1 Z M44.8448519,1 L44.8448519,5.37235543 L40.4724965,5.37235543 L40.4724965,1 L44.8448519,1 Z M10.077574,10.4499295 L10.077574,6.07757405 L14.4499295,6.07757405 L14.4499295,10.4499295 L10.077574,10.4499295 Z M5,15.5275035 L5,11.1551481 L9.37235543,11.1551481 L9.37235543,15.5275035 L5,15.5275035 Z M10.077574,15.5275035 L10.077574,11.1551481 L14.4499295,11.1551481 L14.4499295,15.5275035 L10.077574,15.5275035 Z M5,20.6050776 L5,16.2327221 L9.37235543,16.2327221 L9.37235543,20.6050776 L5,20.6050776 Z M10.077574,20.6050776 L10.077574,16.2327221 L14.4499295,16.2327221 L14.4499295,20.6050776 L10.077574,20.6050776 Z M5,25.6826516 L5,21.3102962 L9.37235543,21.3102962 L9.37235543,25.6826516 L5,25.6826516 Z M10.077574,25.6826516 L10.077574,21.3102962 L14.4499295,21.3102962 L14.4499295,25.6826516 L10.077574,25.6826516 Z M5,30.7602257 L5,26.3878702 L9.37235543,26.3878702 L9.37235543,30.7602257 L5,30.7602257 Z M10.077574,30.7602257 L10.077574,26.3878702 L14.4499295,26.3878702 L14.4499295,30.7602257 L10.077574,30.7602257 Z M5,35.8377997 L5,31.4654443 L9.37235543,31.4654443 L9.37235543,35.8377997 L5,35.8377997 Z M10.077574,35.8377997 L10.077574,31.4654443 L14.4499295,31.4654443 L14.4499295,35.8377997 L10.077574,35.8377997 Z M5,40.8448519 L5,36.4724965 L9.37235543,36.4724965 L9.37235543,40.8448519 L5,40.8448519 Z M10.077574,40.8448519 L10.077574,36.4724965 L14.4499295,36.4724965 L14.4499295,40.8448519 L10.077574,40.8448519 Z M15.1551481,35.8377997 L15.1551481,31.4654443 L19.5275035,31.4654443 L19.5275035,35.8377997 L15.1551481,35.8377997 Z M15.1551481,40.8448519 L15.1551481,36.4724965 L19.5275035,36.4724965 L19.5275035,40.8448519 L15.1551481,40.8448519 Z M20.2327221,35.8377997 L20.2327221,31.4654443 L24.6050776,31.4654443 L24.6050776,35.8377997 L20.2327221,35.8377997 Z M20.2327221,40.8448519 L20.2327221,36.4724965 L24.6050776,36.4724965 L24.6050776,40.8448519 L20.2327221,40.8448519 Z M25.3102962,35.8377997 L25.3102962,31.4654443 L29.6826516,31.4654443 L29.6826516,35.8377997 L25.3102962,35.8377997 Z M25.3102962,40.8448519 L25.3102962,36.4724965 L29.6826516,36.4724965 L29.6826516,40.8448519 L25.3102962,40.8448519 Z M30.3173484,35.8377997 L30.3173484,31.4654443 L34.6897038,31.4654443 L34.6897038,35.8377997 L30.3173484,35.8377997 Z M30.3173484,40.8448519 L30.3173484,36.4724965 L34.6897038,36.4724965 L34.6897038,40.8448519 L30.3173484,40.8448519 Z M40.4724965,35.8377997 L40.4724965,31.4654443 L44.8448519,31.4654443 L44.8448519,35.8377997 L40.4724965,35.8377997 Z M5,45.922426 L5,41.5500705 L9.37235543,41.5500705 L9.37235543,45.922426 L5,45.922426 Z M5,51 L5,46.6276446 L9.37235543,46.6276446 L9.37235543,51 L5,51 Z M10.077574,45.922426 L10.077574,41.5500705 L14.4499295,41.5500705 L14.4499295,45.922426 L10.077574,45.922426 Z M15.1551481,10.4499295 L15.1551481,6.07757405 L19.5275035,6.07757405 L19.5275035,10.4499295 L15.1551481,10.4499295 Z M20.2327221,10.4499295 L20.2327221,6.07757405 L24.6050776,6.07757405 L24.6050776,10.4499295 L20.2327221,10.4499295 Z M25.3102962,10.4499295 L25.3102962,6.07757405 L29.6826516,6.07757405 L29.6826516,10.4499295 L25.3102962,10.4499295 Z M30.3173484,10.4499295 L30.3173484,6.07757405 L34.6897038,6.07757405 L34.6897038,10.4499295 L30.3173484,10.4499295 Z M35.3949224,5.37235543 L35.3949224,1 L39.7672779,1 L39.7672779,5.37235543 L35.3949224,5.37235543 Z M35.3949224,35.8377997 L35.3949224,31.4654443 L39.7672779,31.4654443 L39.7672779,35.8377997 L35.3949224,35.8377997 Z M35.3949224,10.4499295 L35.3949224,6.07757405 L39.7672779,6.07757405 L39.7672779,10.4499295 L35.3949224,10.4499295 Z M40.4724965,10.4499295 L40.4724965,6.07757405 L44.8448519,6.07757405 L44.8448519,10.4499295 L40.4724965,10.4499295 Z M45.5500705,10.4499295 L45.5500705,6.07757405 L49.922426,6.07757405 L49.922426,10.4499295 L45.5500705,10.4499295 Z M40.4724965,15.5275035 L40.4724965,11.1551481 L44.8448519,11.1551481 L44.8448519,15.5275035 L40.4724965,15.5275035 Z M45.5500705,15.5275035 L45.5500705,11.1551481 L49.922426,11.1551481 L49.922426,15.5275035 L45.5500705,15.5275035 Z M50.6276446,11.1551481 L55,11.1551481 L55,15.5275035 L50.6276446,15.5275035 L50.6276446,11.1551481 Z M45.5500705,20.6050776 L45.5500705,16.2327221 L49.922426,16.2327221 L49.922426,20.6050776 L45.5500705,20.6050776 Z M50.6276446,20.6050776 L50.6276446,16.2327221 L55,16.2327221 L55,20.6050776 L50.6276446,20.6050776 Z M45.5500705,25.6826516 L45.5500705,21.3102962 L49.922426,21.3102962 L49.922426,25.6826516 L45.5500705,25.6826516 Z M50.6276446,25.6826516 L50.6276446,21.3102962 L55,21.3102962 L55,25.6826516 L50.6276446,25.6826516 Z M45.5500705,30.7602257 L45.5500705,26.3878702 L49.922426,26.3878702 L49.922426,30.7602257 L45.5500705,30.7602257 Z M45.5500705,35.8377997 L45.5500705,31.4654443 L49.922426,31.4654443 L49.922426,35.8377997 L45.5500705,35.8377997 Z M40.4724965,30.7602257 L40.4724965,26.3878702 L44.8448519,26.3878702 L44.8448519,30.7602257 L40.4724965,30.7602257 Z M50.6276446,30.7602257 L50.6276446,26.3878702 L55,26.3878702 L55,30.7602257 L50.6276446,30.7602257 Z M65.0141044,20.6050776 L65.0141044,16.2327221 L69.3864598,16.2327221 L69.3864598,20.6050776 L65.0141044,20.6050776 Z M65.0141044,25.6826516 L65.0141044,21.3102962 L69.3864598,21.3102962 L69.3864598,25.6826516 L65.0141044,25.6826516 Z M65.0141044,30.7602257 L65.0141044,26.3878702 L69.3864598,26.3878702 L69.3864598,30.7602257 L65.0141044,30.7602257 Z M65.0141044,35.8377997 L65.0141044,31.4654443 L69.3864598,31.4654443 L69.3864598,35.8377997 L65.0141044,35.8377997 Z M65.0141044,40.8448519 L65.0141044,36.4724965 L69.3864598,36.4724965 L69.3864598,40.8448519 L65.0141044,40.8448519 Z M70.0916784,15.5275035 L70.0916784,11.1551481 L74.4640339,11.1551481 L74.4640339,15.5275035 L70.0916784,15.5275035 Z M70.0916784,10.4499295 L70.0916784,6.07757405 L74.4640339,6.07757405 L74.4640339,10.4499295 L70.0916784,10.4499295 Z M75.1692525,15.5275035 L75.1692525,11.1551481 L79.5416079,11.1551481 L79.5416079,15.5275035 L75.1692525,15.5275035 Z M75.1692525,10.4499295 L75.1692525,6.07757405 L79.5416079,6.07757405 L79.5416079,10.4499295 L75.1692525,10.4499295 Z M84.6191819,6.07757405 L84.6191819,10.4499295 L80.2468265,10.4499295 L80.2468265,6.07757405 L84.6191819,6.07757405 Z M80.2468265,5.37235543 L80.2468265,1 L84.6191819,1 L84.6191819,5.37235543 L80.2468265,5.37235543 Z M85.2538787,10.4499295 L85.2538787,6.07757405 L89.6262341,6.07757405 L89.6262341,10.4499295 L85.2538787,10.4499295 Z M85.2538787,5.37235543 L85.2538787,1 L89.6262341,1 L89.6262341,5.37235543 L85.2538787,5.37235543 Z M90.3314528,10.4499295 L90.3314528,6.07757405 L94.7038082,6.07757405 L94.7038082,10.4499295 L90.3314528,10.4499295 Z M94.77433,1 L94.77433,5.37235543 L90.4019746,5.37235543 L90.4019746,1 L94.77433,1 Z M99.7813822,6.07757405 L99.7813822,10.4499295 L95.4090268,10.4499295 L95.4090268,6.07757405 L99.7813822,6.07757405 Z M95.4090268,5.37235543 L95.4090268,1 L99.7813822,1 L99.7813822,5.37235543 L95.4090268,5.37235543 Z M70.0916784,20.6050776 L70.0916784,16.2327221 L74.4640339,16.2327221 L74.4640339,20.6050776 L70.0916784,20.6050776 Z M70.0916784,25.6826516 L70.0916784,21.3102962 L74.4640339,21.3102962 L74.4640339,25.6826516 L70.0916784,25.6826516 Z M70.0916784,30.7602257 L70.0916784,26.3878702 L74.4640339,26.3878702 L74.4640339,30.7602257 L70.0916784,30.7602257 Z M90.3314528,25.6826516 L90.3314528,21.3102962 L94.7038082,21.3102962 L94.7038082,25.6826516 L90.3314528,25.6826516 Z M90.3314528,30.7602257 L90.3314528,26.3878702 L94.7038082,26.3878702 L94.7038082,30.7602257 L90.3314528,30.7602257 Z M99.7813822,21.3102962 L99.7813822,25.6826516 L95.4090268,25.6826516 L95.4090268,21.3102962 L99.7813822,21.3102962 Z M99.7813822,26.3173484 L99.7813822,30.6897038 L95.4090268,30.6897038 L95.4090268,26.3173484 L99.7813822,26.3173484 Z M100.486601,25.6826516 L100.486601,21.3102962 L104.858956,21.3102962 L104.858956,25.6826516 L100.486601,25.6826516 Z M100.486601,30.7602257 L100.486601,26.3878702 L104.858956,26.3878702 L104.858956,30.7602257 L100.486601,30.7602257 Z M100.486601,40.8448519 L100.486601,36.4724965 L104.858956,36.4724965 L104.858956,40.8448519 L100.486601,40.8448519 Z M105.564175,25.6826516 L105.564175,21.3102962 L109.93653,21.3102962 L109.93653,25.6826516 L105.564175,25.6826516 Z M105.564175,30.7602257 L105.564175,26.3878702 L109.93653,26.3878702 L109.93653,30.7602257 L105.564175,30.7602257 Z M100.486601,10.4499295 L100.486601,6.07757405 L104.858956,6.07757405 L104.858956,10.4499295 L100.486601,10.4499295 Z M100.486601,15.5275035 L100.486601,11.1551481 L104.858956,11.1551481 L104.858956,15.5275035 L100.486601,15.5275035 Z M105.564175,10.4499295 L105.564175,6.07757405 L109.93653,6.07757405 L109.93653,10.4499295 L105.564175,10.4499295 Z M105.564175,15.5275035 L105.564175,11.1551481 L109.93653,11.1551481 L109.93653,15.5275035 L105.564175,15.5275035 Z M70.0916784,35.8377997 L70.0916784,31.4654443 L74.4640339,31.4654443 L74.4640339,35.8377997 L70.0916784,35.8377997 Z M70.0916784,40.8448519 L70.0916784,36.4724965 L74.4640339,36.4724965 L74.4640339,40.8448519 L70.0916784,40.8448519 Z M75.1692525,40.8448519 L75.1692525,36.4724965 L79.5416079,36.4724965 L79.5416079,40.8448519 L75.1692525,40.8448519 Z M75.1692525,45.922426 L75.1692525,41.5500705 L79.5416079,41.5500705 L79.5416079,45.922426 L75.1692525,45.922426 Z M75.1692525,51 L75.1692525,46.6276446 L79.5416079,46.6276446 L79.5416079,51 L75.1692525,51 Z M84.6191819,41.5500705 L84.6191819,45.922426 L80.2468265,45.922426 L80.2468265,41.5500705 L84.6191819,41.5500705 Z M80.2468265,51 L80.2468265,46.6276446 L84.6191819,46.6276446 L84.6191819,51 L80.2468265,51 Z M85.2538787,45.922426 L85.2538787,41.5500705 L89.6262341,41.5500705 L89.6262341,45.922426 L85.2538787,45.922426 Z M85.2538787,51 L85.2538787,46.6276446 L89.6262341,46.6276446 L89.6262341,51 L85.2538787,51 Z M90.3314528,45.922426 L90.3314528,41.5500705 L94.7038082,41.5500705 L94.7038082,45.922426 L90.3314528,45.922426 Z M90.3314528,51 L90.3314528,46.6276446 L94.7038082,46.6276446 L94.7038082,51 L90.3314528,51 Z M99.7813822,41.5500705 L99.7813822,45.922426 L95.4090268,45.922426 L95.4090268,41.5500705 L99.7813822,41.5500705 Z M95.4090268,51 L95.4090268,46.6276446 L99.7813822,46.6276446 L99.7813822,51 L95.4090268,51 Z M100.486601,45.922426 L100.486601,41.5500705 L104.858956,41.5500705 L104.858956,45.922426 L100.486601,45.922426 Z M105.564175,45.922426 L105.564175,41.5500705 L109.93653,41.5500705 L109.93653,45.922426 L105.564175,45.922426 Z M105.564175,35.8377997 L105.564175,31.4654443 L109.93653,31.4654443 L109.93653,35.8377997 L105.564175,35.8377997 Z M105.564175,40.8448519 L105.564175,36.4724965 L109.93653,36.4724965 L109.93653,40.8448519 L105.564175,40.8448519 Z M110.641749,26.3173484 L115.014104,26.3173484 L115.014104,30.6897038 L110.641749,30.6897038 L110.641749,26.3173484 Z M110.641749,35.8377997 L110.641749,31.4654443 L115.014104,31.4654443 L115.014104,35.8377997 L110.641749,35.8377997 Z M65.0141044,11.1551481 L69.3864598,11.1551481 L69.3864598,15.5275035 L65.0141044,15.5275035 L65.0141044,11.1551481 Z M75.1692525,1 L79.5416079,1 L79.5416079,5.37235543 L75.1692525,5.37235543 L75.1692525,1 Z M70.0916784,41.5500705 L74.4640339,41.5500705 L74.4640339,45.922426 L70.0916784,45.922426 L70.0916784,41.5500705 Z M100.486601,46.6276446 L104.858956,46.6276446 L104.858956,51 L100.486601,51 L100.486601,46.6276446 Z M110.641749,21.3102962 L115.014104,21.3102962 L115.014104,25.6826516 L110.641749,25.6826516 L110.641749,21.3102962 Z M110.641749,36.4724965 L115.014104,36.4724965 L115.014104,40.8448519 L110.641749,40.8448519 L110.641749,36.4724965 Z" id="形状结合"></path>
                </g>
            </g>
        </g>
    </g>
</svg>