<?xml version="1.0" encoding="UTF-8"?>
<svg width="50px" height="50px" viewBox="0 0 50 50" version="1.1" xmlns="http://www.w3.org/2000/svg" xmlns:xlink="http://www.w3.org/1999/xlink">
    <!-- Generator: Sketch 54 (76480) - https://sketchapp.com -->
    <title>ag_logo</title>
    <desc>Created with Sketch.</desc>
    <g id="页面1" stroke="none" stroke-width="1" fill="none" fill-rule="evenodd">
        <g id="3_1" transform="translate(-542.000000, -3340.000000)" fill="#FFFFFF">
            <g id="主流场馆" transform="translate(200.000000, 2433.000000)">
                <g id="矩形-4" transform="translate(0.000000, 284.000000)">
                    <g id="编组-21" transform="translate(342.000000, 623.000000)">
                        <path d="M11.6256169,28.9362596 C12.791287,27.5077994 13.9181015,26.1507621 15.0837716,24.6865904 C15.7054624,26.1150506 16.2882974,27.5077994 16.9099882,28.9362596 C15.1226273,28.9362596 13.4129778,28.9362596 11.6256169,28.9362596 Z M48.102417,13 C48.616216,13 48.616216,13 48.616216,13.5560315 C47.786233,18.123433 46.9562501,22.730551 46.1657901,27.3376691 C45.6124681,30.5547084 45.0591461,33.7320312 44.5058241,36.909354 C44.4267781,37.2668028 44.3082091,37.3462359 43.9525022,37.3462359 C37.7078684,37.3462359 31.5027576,37.3462359 25.2976468,37.3462359 C25.1000318,37.3462359 24.9419398,37.3859524 24.7443248,37.3859524 C24.6652788,37.3859524 24.6257558,37.4256689 24.5467098,37.4256689 C23.1238819,37.4256689 21.7010539,37.4653855 20.2782259,37.3859524 C20.19918,37.3462359 20.120134,37.3065193 20.080611,37.2270863 C20.120134,36.3533225 20.3572719,35.5192753 20.4758409,34.685228 C20.6734559,33.6525981 20.8710709,32.5802517 21.0291629,31.5476218 C21.1082089,31.0710234 21.1872549,30.6341415 21.2663009,30.1972596 L23.8352958,16.2567559 C23.9538648,15.5021417 24.1119568,14.7872441 24.2305258,14.0326299 L24.3490948,13.4765984 C24.3490948,13.4765984 24.3490948,13.4368819 24.3490948,13.3971653 C24.4281408,13.0397165 24.5862328,13 24.8628938,13 C30.2380216,13 35.6131494,13 40.9882773,13 C43.3596572,13 45.7310371,13 48.102417,13 Z M43.0039502,22.2142361 C43.2806112,22.2142361 43.3201342,22.0950865 43.2806112,21.8567873 C42.9249042,20.4667086 42.2530132,19.235496 41.1858922,18.2822991 C39.2492653,16.5744881 36.9569314,16.0978897 34.5065055,16.5347716 C30.1194526,17.2893858 26.5623827,20.7844408 25.6533538,25.1929762 C25.2186008,27.3376691 25.4952618,29.4029289 26.7995207,31.190173 C28.7361477,33.8511808 31.4632346,34.605795 34.5460285,34.08948 C37.2335924,33.6525981 39.3678343,32.2625194 41.1068463,30.1972596 C41.6601682,29.5220785 42.2925362,28.8468974 42.4111052,27.8937006 C42.4901512,27.2979526 42.6087202,26.662488 42.7272892,26.06674 C42.7668122,25.7887242 42.6877662,25.7092912 42.4111052,25.7092912 C39.9211563,25.7092912 37.4312074,25.7092912 34.9412585,25.7092912 C34.6645975,25.7092912 34.5855515,25.8284408 34.5460285,26.06674 C34.4274595,26.7816376 34.3088905,27.4568187 34.1903215,28.1319998 C34.1112755,28.4100155 34.1903215,28.5291651 34.5065055,28.5291651 C35.8898104,28.5291651 37.2335924,28.5291651 38.6168973,28.5291651 C38.7749893,28.5291651 38.9330813,28.4894486 39.0516503,28.5688817 C39.0516503,28.6085982 39.0516503,28.6085982 39.0516503,28.6483147 C39.0516503,28.6880313 39.0121273,28.7277478 38.9726043,28.7674643 C37.5102534,30.4355588 35.6921954,31.4284722 33.4393845,31.4681887 C30.2775446,31.4681887 27.9852107,29.0057636 28.3409177,25.7490077 C28.6571017,22.730551 30.9889586,20.1489763 33.9136605,19.3943621 C36.5221784,18.719181 39.1306963,19.6723779 40.1978173,22.0156534 C40.2768633,22.1745196 40.3954323,22.2142361 40.5535243,22.2142361 C41.3439842,22.2142361 42.1739672,22.2142361 43.0039502,22.2142361 Z M18.3649672,38.4919543 L24.308108,38.4919543 C24.1908092,39.1690614 24.0735103,39.8461684 23.9562115,40.5232754 C23.8389127,40.6825947 23.6825142,40.6029351 23.5652154,40.6029351 C15.8234926,40.6029351 8.12086935,40.6029351 0.418246125,40.6029351 C0.027250022,40.6029351 -0.0509491985,40.5232754 0.027250022,40.164807 C0.731043007,36.0225051 1.4739356,31.8403734 2.17772859,27.6980716 C2.80332235,23.9540679 3.46801573,20.2498941 4.09360949,16.5058905 C4.1327091,16.1872519 4.28910754,16.1872519 4.5237052,16.1872519 C6.47868572,16.1872519 8.47276584,16.1872519 10.4277464,16.1872519 C14.4159066,16.1872519 18.4431665,16.1872519 22.4313267,16.1872519 L19.9680513,29.6895628 C18.5604653,26.1048785 17.1919789,22.560024 15.784393,18.9753397 C15.784393,18.8956801 15.7452934,18.7761906 15.6279945,18.6965309 C11.1315393,24.7904943 6.63508416,30.9242874 2.13862898,37.0182508 C2.29502742,37.1377402 2.41232625,37.0979104 2.52962508,37.0979104 C3.15521884,37.0979104 3.81991222,37.0580806 4.44550598,37.0979104 C4.83650209,37.1377402 5.07109975,36.9784209 5.30569741,36.6597823 C6.4004865,35.146249 7.5734748,33.6327156 8.66826389,32.0793524 C8.98106077,31.6810541 9.29385766,31.481905 9.8412522,31.481905 C12.2263284,31.481905 14.6114047,31.481905 16.9964809,31.481905 C17.7393735,31.481905 17.7393735,31.481905 18.0130707,32.1988419 C18.4040668,33.1547577 18.7559633,34.0708437 19.1078598,34.9869297 L19.0296606,34.9869297 L18.3649672,38.4919543 Z" id="形状结合"></path>
                    </g>
                </g>
            </g>
        </g>
    </g>
</svg>