<?xml version="1.0" encoding="UTF-8"?>
<svg width="1365px" height="3px" viewBox="0 0 1365 3" version="1.1" xmlns="http://www.w3.org/2000/svg" xmlns:xlink="http://www.w3.org/1999/xlink">
    <!-- Generator: Sketch 54 (76480) - https://sketchapp.com -->
    <title>形状结合</title>
    <desc>Created with Sketch.</desc>
    <g id="页面1" stroke="none" stroke-width="1" fill="none" fill-rule="evenodd">
        <g id="3_1" transform="translate(-278.000000, -11906.000000)" fill="#E0C9B2">
            <g id="商务流程" transform="translate(278.000000, 11654.000000)">
                <path d="M1.5,255 C0.671572875,255 0,254.328427 0,253.5 C0,252.671573 0.671572875,252 1.5,252 C2.32842712,252 3,252.671573 3,253.5 C3,254.328427 2.32842712,255 1.5,255 Z M7.5,255 C6.67157288,255 6,254.328427 6,253.5 C6,252.671573 6.67157288,252 7.5,252 C8.32842712,252 9,252.671573 9,253.5 C9,254.328427 8.32842712,255 7.5,255 Z M13.5,255 C12.6715729,255 12,254.328427 12,253.5 C12,252.671573 12.6715729,252 13.5,252 C14.3284271,252 15,252.671573 15,253.5 C15,254.328427 14.3284271,255 13.5,255 Z M19.5,255 C18.6715729,255 18,254.328427 18,253.5 C18,252.671573 18.6715729,252 19.5,252 C20.3284271,252 21,252.671573 21,253.5 C21,254.328427 20.3284271,255 19.5,255 Z M25.5,255 C24.6715729,255 24,254.328427 24,253.5 C24,252.671573 24.6715729,252 25.5,252 C26.3284271,252 27,252.671573 27,253.5 C27,254.328427 26.3284271,255 25.5,255 Z M31.5,255 C30.6715729,255 30,254.328427 30,253.5 C30,252.671573 30.6715729,252 31.5,252 C32.3284271,252 33,252.671573 33,253.5 C33,254.328427 32.3284271,255 31.5,255 Z M37.5,255 C36.6715729,255 36,254.328427 36,253.5 C36,252.671573 36.6715729,252 37.5,252 C38.3284271,252 39,252.671573 39,253.5 C39,254.328427 38.3284271,255 37.5,255 Z M43.5,255 C42.6715729,255 42,254.328427 42,253.5 C42,252.671573 42.6715729,252 43.5,252 C44.3284271,252 45,252.671573 45,253.5 C45,254.328427 44.3284271,255 43.5,255 Z M49.5,255 C48.6715729,255 48,254.328427 48,253.5 C48,252.671573 48.6715729,252 49.5,252 C50.3284271,252 51,252.671573 51,253.5 C51,254.328427 50.3284271,255 49.5,255 Z M55.5,255 C54.6715729,255 54,254.328427 54,253.5 C54,252.671573 54.6715729,252 55.5,252 C56.3284271,252 57,252.671573 57,253.5 C57,254.328427 56.3284271,255 55.5,255 Z M61.5,255 C60.6715729,255 60,254.328427 60,253.5 C60,252.671573 60.6715729,252 61.5,252 C62.3284271,252 63,252.671573 63,253.5 C63,254.328427 62.3284271,255 61.5,255 Z M67.5,255 C66.6715729,255 66,254.328427 66,253.5 C66,252.671573 66.6715729,252 67.5,252 C68.3284271,252 69,252.671573 69,253.5 C69,254.328427 68.3284271,255 67.5,255 Z M73.5,255 C72.6715729,255 72,254.328427 72,253.5 C72,252.671573 72.6715729,252 73.5,252 C74.3284271,252 75,252.671573 75,253.5 C75,254.328427 74.3284271,255 73.5,255 Z M79.5,255 C78.6715729,255 78,254.328427 78,253.5 C78,252.671573 78.6715729,252 79.5,252 C80.3284271,252 81,252.671573 81,253.5 C81,254.328427 80.3284271,255 79.5,255 Z M85.5,255 C84.6715729,255 84,254.328427 84,253.5 C84,252.671573 84.6715729,252 85.5,252 C86.3284271,252 87,252.671573 87,253.5 C87,254.328427 86.3284271,255 85.5,255 Z M91.5,255 C90.6715729,255 90,254.328427 90,253.5 C90,252.671573 90.6715729,252 91.5,252 C92.3284271,252 93,252.671573 93,253.5 C93,254.328427 92.3284271,255 91.5,255 Z M97.5,255 C96.6715729,255 96,254.328427 96,253.5 C96,252.671573 96.6715729,252 97.5,252 C98.3284271,252 99,252.671573 99,253.5 C99,254.328427 98.3284271,255 97.5,255 Z M103.5,255 C102.671573,255 102,254.328427 102,253.5 C102,252.671573 102.671573,252 103.5,252 C104.328427,252 105,252.671573 105,253.5 C105,254.328427 104.328427,255 103.5,255 Z M109.5,255 C108.671573,255 108,254.328427 108,253.5 C108,252.671573 108.671573,252 109.5,252 C110.328427,252 111,252.671573 111,253.5 C111,254.328427 110.328427,255 109.5,255 Z M115.5,255 C114.671573,255 114,254.328427 114,253.5 C114,252.671573 114.671573,252 115.5,252 C116.328427,252 117,252.671573 117,253.5 C117,254.328427 116.328427,255 115.5,255 Z M121.5,255 C120.671573,255 120,254.328427 120,253.5 C120,252.671573 120.671573,252 121.5,252 C122.328427,252 123,252.671573 123,253.5 C123,254.328427 122.328427,255 121.5,255 Z M127.5,255 C126.671573,255 126,254.328427 126,253.5 C126,252.671573 126.671573,252 127.5,252 C128.328427,252 129,252.671573 129,253.5 C129,254.328427 128.328427,255 127.5,255 Z M133.5,255 C132.671573,255 132,254.328427 132,253.5 C132,252.671573 132.671573,252 133.5,252 C134.328427,252 135,252.671573 135,253.5 C135,254.328427 134.328427,255 133.5,255 Z M139.5,255 C138.671573,255 138,254.328427 138,253.5 C138,252.671573 138.671573,252 139.5,252 C140.328427,252 141,252.671573 141,253.5 C141,254.328427 140.328427,255 139.5,255 Z M145.5,255 C144.671573,255 144,254.328427 144,253.5 C144,252.671573 144.671573,252 145.5,252 C146.328427,252 147,252.671573 147,253.5 C147,254.328427 146.328427,255 145.5,255 Z M151.5,255 C150.671573,255 150,254.328427 150,253.5 C150,252.671573 150.671573,252 151.5,252 C152.328427,252 153,252.671573 153,253.5 C153,254.328427 152.328427,255 151.5,255 Z M157.5,255 C156.671573,255 156,254.328427 156,253.5 C156,252.671573 156.671573,252 157.5,252 C158.328427,252 159,252.671573 159,253.5 C159,254.328427 158.328427,255 157.5,255 Z M163.5,255 C162.671573,255 162,254.328427 162,253.5 C162,252.671573 162.671573,252 163.5,252 C164.328427,252 165,252.671573 165,253.5 C165,254.328427 164.328427,255 163.5,255 Z M169.5,255 C168.671573,255 168,254.328427 168,253.5 C168,252.671573 168.671573,252 169.5,252 C170.328427,252 171,252.671573 171,253.5 C171,254.328427 170.328427,255 169.5,255 Z M175.5,255 C174.671573,255 174,254.328427 174,253.5 C174,252.671573 174.671573,252 175.5,252 C176.328427,252 177,252.671573 177,253.5 C177,254.328427 176.328427,255 175.5,255 Z M181.5,255 C180.671573,255 180,254.328427 180,253.5 C180,252.671573 180.671573,252 181.5,252 C182.328427,252 183,252.671573 183,253.5 C183,254.328427 182.328427,255 181.5,255 Z M187.5,255 C186.671573,255 186,254.328427 186,253.5 C186,252.671573 186.671573,252 187.5,252 C188.328427,252 189,252.671573 189,253.5 C189,254.328427 188.328427,255 187.5,255 Z M193.5,255 C192.671573,255 192,254.328427 192,253.5 C192,252.671573 192.671573,252 193.5,252 C194.328427,252 195,252.671573 195,253.5 C195,254.328427 194.328427,255 193.5,255 Z M199.5,255 C198.671573,255 198,254.328427 198,253.5 C198,252.671573 198.671573,252 199.5,252 C200.328427,252 201,252.671573 201,253.5 C201,254.328427 200.328427,255 199.5,255 Z M205.5,255 C204.671573,255 204,254.328427 204,253.5 C204,252.671573 204.671573,252 205.5,252 C206.328427,252 207,252.671573 207,253.5 C207,254.328427 206.328427,255 205.5,255 Z M211.5,255 C210.671573,255 210,254.328427 210,253.5 C210,252.671573 210.671573,252 211.5,252 C212.328427,252 213,252.671573 213,253.5 C213,254.328427 212.328427,255 211.5,255 Z M217.5,255 C216.671573,255 216,254.328427 216,253.5 C216,252.671573 216.671573,252 217.5,252 C218.328427,252 219,252.671573 219,253.5 C219,254.328427 218.328427,255 217.5,255 Z M223.5,255 C222.671573,255 222,254.328427 222,253.5 C222,252.671573 222.671573,252 223.5,252 C224.328427,252 225,252.671573 225,253.5 C225,254.328427 224.328427,255 223.5,255 Z M229.5,255 C228.671573,255 228,254.328427 228,253.5 C228,252.671573 228.671573,252 229.5,252 C230.328427,252 231,252.671573 231,253.5 C231,254.328427 230.328427,255 229.5,255 Z M235.5,255 C234.671573,255 234,254.328427 234,253.5 C234,252.671573 234.671573,252 235.5,252 C236.328427,252 237,252.671573 237,253.5 C237,254.328427 236.328427,255 235.5,255 Z M241.5,255 C240.671573,255 240,254.328427 240,253.5 C240,252.671573 240.671573,252 241.5,252 C242.328427,252 243,252.671573 243,253.5 C243,254.328427 242.328427,255 241.5,255 Z M247.5,255 C246.671573,255 246,254.328427 246,253.5 C246,252.671573 246.671573,252 247.5,252 C248.328427,252 249,252.671573 249,253.5 C249,254.328427 248.328427,255 247.5,255 Z M253.5,255 C252.671573,255 252,254.328427 252,253.5 C252,252.671573 252.671573,252 253.5,252 C254.328427,252 255,252.671573 255,253.5 C255,254.328427 254.328427,255 253.5,255 Z M259.5,255 C258.671573,255 258,254.328427 258,253.5 C258,252.671573 258.671573,252 259.5,252 C260.328427,252 261,252.671573 261,253.5 C261,254.328427 260.328427,255 259.5,255 Z M265.5,255 C264.671573,255 264,254.328427 264,253.5 C264,252.671573 264.671573,252 265.5,252 C266.328427,252 267,252.671573 267,253.5 C267,254.328427 266.328427,255 265.5,255 Z M271.5,255 C270.671573,255 270,254.328427 270,253.5 C270,252.671573 270.671573,252 271.5,252 C272.328427,252 273,252.671573 273,253.5 C273,254.328427 272.328427,255 271.5,255 Z M277.5,255 C276.671573,255 276,254.328427 276,253.5 C276,252.671573 276.671573,252 277.5,252 C278.328427,252 279,252.671573 279,253.5 C279,254.328427 278.328427,255 277.5,255 Z M283.5,255 C282.671573,255 282,254.328427 282,253.5 C282,252.671573 282.671573,252 283.5,252 C284.328427,252 285,252.671573 285,253.5 C285,254.328427 284.328427,255 283.5,255 Z M289.5,255 C288.671573,255 288,254.328427 288,253.5 C288,252.671573 288.671573,252 289.5,252 C290.328427,252 291,252.671573 291,253.5 C291,254.328427 290.328427,255 289.5,255 Z M295.5,255 C294.671573,255 294,254.328427 294,253.5 C294,252.671573 294.671573,252 295.5,252 C296.328427,252 297,252.671573 297,253.5 C297,254.328427 296.328427,255 295.5,255 Z M301.5,255 C300.671573,255 300,254.328427 300,253.5 C300,252.671573 300.671573,252 301.5,252 C302.328427,252 303,252.671573 303,253.5 C303,254.328427 302.328427,255 301.5,255 Z M307.5,255 C306.671573,255 306,254.328427 306,253.5 C306,252.671573 306.671573,252 307.5,252 C308.328427,252 309,252.671573 309,253.5 C309,254.328427 308.328427,255 307.5,255 Z M313.5,255 C312.671573,255 312,254.328427 312,253.5 C312,252.671573 312.671573,252 313.5,252 C314.328427,252 315,252.671573 315,253.5 C315,254.328427 314.328427,255 313.5,255 Z M319.5,255 C318.671573,255 318,254.328427 318,253.5 C318,252.671573 318.671573,252 319.5,252 C320.328427,252 321,252.671573 321,253.5 C321,254.328427 320.328427,255 319.5,255 Z M325.5,255 C324.671573,255 324,254.328427 324,253.5 C324,252.671573 324.671573,252 325.5,252 C326.328427,252 327,252.671573 327,253.5 C327,254.328427 326.328427,255 325.5,255 Z M331.5,255 C330.671573,255 330,254.328427 330,253.5 C330,252.671573 330.671573,252 331.5,252 C332.328427,252 333,252.671573 333,253.5 C333,254.328427 332.328427,255 331.5,255 Z M337.5,255 C336.671573,255 336,254.328427 336,253.5 C336,252.671573 336.671573,252 337.5,252 C338.328427,252 339,252.671573 339,253.5 C339,254.328427 338.328427,255 337.5,255 Z M343.5,255 C342.671573,255 342,254.328427 342,253.5 C342,252.671573 342.671573,252 343.5,252 C344.328427,252 345,252.671573 345,253.5 C345,254.328427 344.328427,255 343.5,255 Z M349.5,255 C348.671573,255 348,254.328427 348,253.5 C348,252.671573 348.671573,252 349.5,252 C350.328427,252 351,252.671573 351,253.5 C351,254.328427 350.328427,255 349.5,255 Z M355.5,255 C354.671573,255 354,254.328427 354,253.5 C354,252.671573 354.671573,252 355.5,252 C356.328427,252 357,252.671573 357,253.5 C357,254.328427 356.328427,255 355.5,255 Z M361.5,255 C360.671573,255 360,254.328427 360,253.5 C360,252.671573 360.671573,252 361.5,252 C362.328427,252 363,252.671573 363,253.5 C363,254.328427 362.328427,255 361.5,255 Z M367.5,255 C366.671573,255 366,254.328427 366,253.5 C366,252.671573 366.671573,252 367.5,252 C368.328427,252 369,252.671573 369,253.5 C369,254.328427 368.328427,255 367.5,255 Z M373.5,255 C372.671573,255 372,254.328427 372,253.5 C372,252.671573 372.671573,252 373.5,252 C374.328427,252 375,252.671573 375,253.5 C375,254.328427 374.328427,255 373.5,255 Z M379.5,255 C378.671573,255 378,254.328427 378,253.5 C378,252.671573 378.671573,252 379.5,252 C380.328427,252 381,252.671573 381,253.5 C381,254.328427 380.328427,255 379.5,255 Z M385.5,255 C384.671573,255 384,254.328427 384,253.5 C384,252.671573 384.671573,252 385.5,252 C386.328427,252 387,252.671573 387,253.5 C387,254.328427 386.328427,255 385.5,255 Z M391.5,255 C390.671573,255 390,254.328427 390,253.5 C390,252.671573 390.671573,252 391.5,252 C392.328427,252 393,252.671573 393,253.5 C393,254.328427 392.328427,255 391.5,255 Z M397.5,255 C396.671573,255 396,254.328427 396,253.5 C396,252.671573 396.671573,252 397.5,252 C398.328427,252 399,252.671573 399,253.5 C399,254.328427 398.328427,255 397.5,255 Z M403.5,255 C402.671573,255 402,254.328427 402,253.5 C402,252.671573 402.671573,252 403.5,252 C404.328427,252 405,252.671573 405,253.5 C405,254.328427 404.328427,255 403.5,255 Z M409.5,255 C408.671573,255 408,254.328427 408,253.5 C408,252.671573 408.671573,252 409.5,252 C410.328427,252 411,252.671573 411,253.5 C411,254.328427 410.328427,255 409.5,255 Z M415.5,255 C414.671573,255 414,254.328427 414,253.5 C414,252.671573 414.671573,252 415.5,252 C416.328427,252 417,252.671573 417,253.5 C417,254.328427 416.328427,255 415.5,255 Z M421.5,255 C420.671573,255 420,254.328427 420,253.5 C420,252.671573 420.671573,252 421.5,252 C422.328427,252 423,252.671573 423,253.5 C423,254.328427 422.328427,255 421.5,255 Z M427.5,255 C426.671573,255 426,254.328427 426,253.5 C426,252.671573 426.671573,252 427.5,252 C428.328427,252 429,252.671573 429,253.5 C429,254.328427 428.328427,255 427.5,255 Z M433.5,255 C432.671573,255 432,254.328427 432,253.5 C432,252.671573 432.671573,252 433.5,252 C434.328427,252 435,252.671573 435,253.5 C435,254.328427 434.328427,255 433.5,255 Z M439.5,255 C438.671573,255 438,254.328427 438,253.5 C438,252.671573 438.671573,252 439.5,252 C440.328427,252 441,252.671573 441,253.5 C441,254.328427 440.328427,255 439.5,255 Z M445.5,255 C444.671573,255 444,254.328427 444,253.5 C444,252.671573 444.671573,252 445.5,252 C446.328427,252 447,252.671573 447,253.5 C447,254.328427 446.328427,255 445.5,255 Z M451.5,255 C450.671573,255 450,254.328427 450,253.5 C450,252.671573 450.671573,252 451.5,252 C452.328427,252 453,252.671573 453,253.5 C453,254.328427 452.328427,255 451.5,255 Z M457.5,255 C456.671573,255 456,254.328427 456,253.5 C456,252.671573 456.671573,252 457.5,252 C458.328427,252 459,252.671573 459,253.5 C459,254.328427 458.328427,255 457.5,255 Z M463.5,255 C462.671573,255 462,254.328427 462,253.5 C462,252.671573 462.671573,252 463.5,252 C464.328427,252 465,252.671573 465,253.5 C465,254.328427 464.328427,255 463.5,255 Z M469.5,255 C468.671573,255 468,254.328427 468,253.5 C468,252.671573 468.671573,252 469.5,252 C470.328427,252 471,252.671573 471,253.5 C471,254.328427 470.328427,255 469.5,255 Z M475.5,255 C474.671573,255 474,254.328427 474,253.5 C474,252.671573 474.671573,252 475.5,252 C476.328427,252 477,252.671573 477,253.5 C477,254.328427 476.328427,255 475.5,255 Z M481.5,255 C480.671573,255 480,254.328427 480,253.5 C480,252.671573 480.671573,252 481.5,252 C482.328427,252 483,252.671573 483,253.5 C483,254.328427 482.328427,255 481.5,255 Z M487.5,255 C486.671573,255 486,254.328427 486,253.5 C486,252.671573 486.671573,252 487.5,252 C488.328427,252 489,252.671573 489,253.5 C489,254.328427 488.328427,255 487.5,255 Z M493.5,255 C492.671573,255 492,254.328427 492,253.5 C492,252.671573 492.671573,252 493.5,252 C494.328427,252 495,252.671573 495,253.5 C495,254.328427 494.328427,255 493.5,255 Z M499.5,255 C498.671573,255 498,254.328427 498,253.5 C498,252.671573 498.671573,252 499.5,252 C500.328427,252 501,252.671573 501,253.5 C501,254.328427 500.328427,255 499.5,255 Z M505.5,255 C504.671573,255 504,254.328427 504,253.5 C504,252.671573 504.671573,252 505.5,252 C506.328427,252 507,252.671573 507,253.5 C507,254.328427 506.328427,255 505.5,255 Z M511.5,255 C510.671573,255 510,254.328427 510,253.5 C510,252.671573 510.671573,252 511.5,252 C512.328427,252 513,252.671573 513,253.5 C513,254.328427 512.328427,255 511.5,255 Z M517.5,255 C516.671573,255 516,254.328427 516,253.5 C516,252.671573 516.671573,252 517.5,252 C518.328427,252 519,252.671573 519,253.5 C519,254.328427 518.328427,255 517.5,255 Z M523.5,255 C522.671573,255 522,254.328427 522,253.5 C522,252.671573 522.671573,252 523.5,252 C524.328427,252 525,252.671573 525,253.5 C525,254.328427 524.328427,255 523.5,255 Z M529.5,255 C528.671573,255 528,254.328427 528,253.5 C528,252.671573 528.671573,252 529.5,252 C530.328427,252 531,252.671573 531,253.5 C531,254.328427 530.328427,255 529.5,255 Z M535.5,255 C534.671573,255 534,254.328427 534,253.5 C534,252.671573 534.671573,252 535.5,252 C536.328427,252 537,252.671573 537,253.5 C537,254.328427 536.328427,255 535.5,255 Z M541.5,255 C540.671573,255 540,254.328427 540,253.5 C540,252.671573 540.671573,252 541.5,252 C542.328427,252 543,252.671573 543,253.5 C543,254.328427 542.328427,255 541.5,255 Z M547.5,255 C546.671573,255 546,254.328427 546,253.5 C546,252.671573 546.671573,252 547.5,252 C548.328427,252 549,252.671573 549,253.5 C549,254.328427 548.328427,255 547.5,255 Z M553.5,255 C552.671573,255 552,254.328427 552,253.5 C552,252.671573 552.671573,252 553.5,252 C554.328427,252 555,252.671573 555,253.5 C555,254.328427 554.328427,255 553.5,255 Z M559.5,255 C558.671573,255 558,254.328427 558,253.5 C558,252.671573 558.671573,252 559.5,252 C560.328427,252 561,252.671573 561,253.5 C561,254.328427 560.328427,255 559.5,255 Z M565.5,255 C564.671573,255 564,254.328427 564,253.5 C564,252.671573 564.671573,252 565.5,252 C566.328427,252 567,252.671573 567,253.5 C567,254.328427 566.328427,255 565.5,255 Z M571.5,255 C570.671573,255 570,254.328427 570,253.5 C570,252.671573 570.671573,252 571.5,252 C572.328427,252 573,252.671573 573,253.5 C573,254.328427 572.328427,255 571.5,255 Z M577.5,255 C576.671573,255 576,254.328427 576,253.5 C576,252.671573 576.671573,252 577.5,252 C578.328427,252 579,252.671573 579,253.5 C579,254.328427 578.328427,255 577.5,255 Z M583.5,255 C582.671573,255 582,254.328427 582,253.5 C582,252.671573 582.671573,252 583.5,252 C584.328427,252 585,252.671573 585,253.5 C585,254.328427 584.328427,255 583.5,255 Z M589.5,255 C588.671573,255 588,254.328427 588,253.5 C588,252.671573 588.671573,252 589.5,252 C590.328427,252 591,252.671573 591,253.5 C591,254.328427 590.328427,255 589.5,255 Z M595.5,255 C594.671573,255 594,254.328427 594,253.5 C594,252.671573 594.671573,252 595.5,252 C596.328427,252 597,252.671573 597,253.5 C597,254.328427 596.328427,255 595.5,255 Z M601.5,255 C600.671573,255 600,254.328427 600,253.5 C600,252.671573 600.671573,252 601.5,252 C602.328427,252 603,252.671573 603,253.5 C603,254.328427 602.328427,255 601.5,255 Z M607.5,255 C606.671573,255 606,254.328427 606,253.5 C606,252.671573 606.671573,252 607.5,252 C608.328427,252 609,252.671573 609,253.5 C609,254.328427 608.328427,255 607.5,255 Z M613.5,255 C612.671573,255 612,254.328427 612,253.5 C612,252.671573 612.671573,252 613.5,252 C614.328427,252 615,252.671573 615,253.5 C615,254.328427 614.328427,255 613.5,255 Z M619.5,255 C618.671573,255 618,254.328427 618,253.5 C618,252.671573 618.671573,252 619.5,252 C620.328427,252 621,252.671573 621,253.5 C621,254.328427 620.328427,255 619.5,255 Z M625.5,255 C624.671573,255 624,254.328427 624,253.5 C624,252.671573 624.671573,252 625.5,252 C626.328427,252 627,252.671573 627,253.5 C627,254.328427 626.328427,255 625.5,255 Z M631.5,255 C630.671573,255 630,254.328427 630,253.5 C630,252.671573 630.671573,252 631.5,252 C632.328427,252 633,252.671573 633,253.5 C633,254.328427 632.328427,255 631.5,255 Z M637.5,255 C636.671573,255 636,254.328427 636,253.5 C636,252.671573 636.671573,252 637.5,252 C638.328427,252 639,252.671573 639,253.5 C639,254.328427 638.328427,255 637.5,255 Z M643.5,255 C642.671573,255 642,254.328427 642,253.5 C642,252.671573 642.671573,252 643.5,252 C644.328427,252 645,252.671573 645,253.5 C645,254.328427 644.328427,255 643.5,255 Z M649.5,255 C648.671573,255 648,254.328427 648,253.5 C648,252.671573 648.671573,252 649.5,252 C650.328427,252 651,252.671573 651,253.5 C651,254.328427 650.328427,255 649.5,255 Z M655.5,255 C654.671573,255 654,254.328427 654,253.5 C654,252.671573 654.671573,252 655.5,252 C656.328427,252 657,252.671573 657,253.5 C657,254.328427 656.328427,255 655.5,255 Z M661.5,255 C660.671573,255 660,254.328427 660,253.5 C660,252.671573 660.671573,252 661.5,252 C662.328427,252 663,252.671573 663,253.5 C663,254.328427 662.328427,255 661.5,255 Z M667.5,255 C666.671573,255 666,254.328427 666,253.5 C666,252.671573 666.671573,252 667.5,252 C668.328427,252 669,252.671573 669,253.5 C669,254.328427 668.328427,255 667.5,255 Z M673.5,255 C672.671573,255 672,254.328427 672,253.5 C672,252.671573 672.671573,252 673.5,252 C674.328427,252 675,252.671573 675,253.5 C675,254.328427 674.328427,255 673.5,255 Z M679.5,255 C678.671573,255 678,254.328427 678,253.5 C678,252.671573 678.671573,252 679.5,252 C680.328427,252 681,252.671573 681,253.5 C681,254.328427 680.328427,255 679.5,255 Z M685.5,255 C684.671573,255 684,254.328427 684,253.5 C684,252.671573 684.671573,252 685.5,252 C686.328427,252 687,252.671573 687,253.5 C687,254.328427 686.328427,255 685.5,255 Z M691.5,255 C690.671573,255 690,254.328427 690,253.5 C690,252.671573 690.671573,252 691.5,252 C692.328427,252 693,252.671573 693,253.5 C693,254.328427 692.328427,255 691.5,255 Z M697.5,255 C696.671573,255 696,254.328427 696,253.5 C696,252.671573 696.671573,252 697.5,252 C698.328427,252 699,252.671573 699,253.5 C699,254.328427 698.328427,255 697.5,255 Z M703.5,255 C702.671573,255 702,254.328427 702,253.5 C702,252.671573 702.671573,252 703.5,252 C704.328427,252 705,252.671573 705,253.5 C705,254.328427 704.328427,255 703.5,255 Z M709.5,255 C708.671573,255 708,254.328427 708,253.5 C708,252.671573 708.671573,252 709.5,252 C710.328427,252 711,252.671573 711,253.5 C711,254.328427 710.328427,255 709.5,255 Z M715.5,255 C714.671573,255 714,254.328427 714,253.5 C714,252.671573 714.671573,252 715.5,252 C716.328427,252 717,252.671573 717,253.5 C717,254.328427 716.328427,255 715.5,255 Z M721.5,255 C720.671573,255 720,254.328427 720,253.5 C720,252.671573 720.671573,252 721.5,252 C722.328427,252 723,252.671573 723,253.5 C723,254.328427 722.328427,255 721.5,255 Z M727.5,255 C726.671573,255 726,254.328427 726,253.5 C726,252.671573 726.671573,252 727.5,252 C728.328427,252 729,252.671573 729,253.5 C729,254.328427 728.328427,255 727.5,255 Z M733.5,255 C732.671573,255 732,254.328427 732,253.5 C732,252.671573 732.671573,252 733.5,252 C734.328427,252 735,252.671573 735,253.5 C735,254.328427 734.328427,255 733.5,255 Z M739.5,255 C738.671573,255 738,254.328427 738,253.5 C738,252.671573 738.671573,252 739.5,252 C740.328427,252 741,252.671573 741,253.5 C741,254.328427 740.328427,255 739.5,255 Z M745.5,255 C744.671573,255 744,254.328427 744,253.5 C744,252.671573 744.671573,252 745.5,252 C746.328427,252 747,252.671573 747,253.5 C747,254.328427 746.328427,255 745.5,255 Z M751.5,255 C750.671573,255 750,254.328427 750,253.5 C750,252.671573 750.671573,252 751.5,252 C752.328427,252 753,252.671573 753,253.5 C753,254.328427 752.328427,255 751.5,255 Z M757.5,255 C756.671573,255 756,254.328427 756,253.5 C756,252.671573 756.671573,252 757.5,252 C758.328427,252 759,252.671573 759,253.5 C759,254.328427 758.328427,255 757.5,255 Z M763.5,255 C762.671573,255 762,254.328427 762,253.5 C762,252.671573 762.671573,252 763.5,252 C764.328427,252 765,252.671573 765,253.5 C765,254.328427 764.328427,255 763.5,255 Z M769.5,255 C768.671573,255 768,254.328427 768,253.5 C768,252.671573 768.671573,252 769.5,252 C770.328427,252 771,252.671573 771,253.5 C771,254.328427 770.328427,255 769.5,255 Z M775.5,255 C774.671573,255 774,254.328427 774,253.5 C774,252.671573 774.671573,252 775.5,252 C776.328427,252 777,252.671573 777,253.5 C777,254.328427 776.328427,255 775.5,255 Z M781.5,255 C780.671573,255 780,254.328427 780,253.5 C780,252.671573 780.671573,252 781.5,252 C782.328427,252 783,252.671573 783,253.5 C783,254.328427 782.328427,255 781.5,255 Z M787.5,255 C786.671573,255 786,254.328427 786,253.5 C786,252.671573 786.671573,252 787.5,252 C788.328427,252 789,252.671573 789,253.5 C789,254.328427 788.328427,255 787.5,255 Z M793.5,255 C792.671573,255 792,254.328427 792,253.5 C792,252.671573 792.671573,252 793.5,252 C794.328427,252 795,252.671573 795,253.5 C795,254.328427 794.328427,255 793.5,255 Z M799.5,255 C798.671573,255 798,254.328427 798,253.5 C798,252.671573 798.671573,252 799.5,252 C800.328427,252 801,252.671573 801,253.5 C801,254.328427 800.328427,255 799.5,255 Z M805.5,255 C804.671573,255 804,254.328427 804,253.5 C804,252.671573 804.671573,252 805.5,252 C806.328427,252 807,252.671573 807,253.5 C807,254.328427 806.328427,255 805.5,255 Z M811.5,255 C810.671573,255 810,254.328427 810,253.5 C810,252.671573 810.671573,252 811.5,252 C812.328427,252 813,252.671573 813,253.5 C813,254.328427 812.328427,255 811.5,255 Z M817.5,255 C816.671573,255 816,254.328427 816,253.5 C816,252.671573 816.671573,252 817.5,252 C818.328427,252 819,252.671573 819,253.5 C819,254.328427 818.328427,255 817.5,255 Z M823.5,255 C822.671573,255 822,254.328427 822,253.5 C822,252.671573 822.671573,252 823.5,252 C824.328427,252 825,252.671573 825,253.5 C825,254.328427 824.328427,255 823.5,255 Z M829.5,255 C828.671573,255 828,254.328427 828,253.5 C828,252.671573 828.671573,252 829.5,252 C830.328427,252 831,252.671573 831,253.5 C831,254.328427 830.328427,255 829.5,255 Z M835.5,255 C834.671573,255 834,254.328427 834,253.5 C834,252.671573 834.671573,252 835.5,252 C836.328427,252 837,252.671573 837,253.5 C837,254.328427 836.328427,255 835.5,255 Z M841.5,255 C840.671573,255 840,254.328427 840,253.5 C840,252.671573 840.671573,252 841.5,252 C842.328427,252 843,252.671573 843,253.5 C843,254.328427 842.328427,255 841.5,255 Z M847.5,255 C846.671573,255 846,254.328427 846,253.5 C846,252.671573 846.671573,252 847.5,252 C848.328427,252 849,252.671573 849,253.5 C849,254.328427 848.328427,255 847.5,255 Z M853.5,255 C852.671573,255 852,254.328427 852,253.5 C852,252.671573 852.671573,252 853.5,252 C854.328427,252 855,252.671573 855,253.5 C855,254.328427 854.328427,255 853.5,255 Z M859.5,255 C858.671573,255 858,254.328427 858,253.5 C858,252.671573 858.671573,252 859.5,252 C860.328427,252 861,252.671573 861,253.5 C861,254.328427 860.328427,255 859.5,255 Z M865.5,255 C864.671573,255 864,254.328427 864,253.5 C864,252.671573 864.671573,252 865.5,252 C866.328427,252 867,252.671573 867,253.5 C867,254.328427 866.328427,255 865.5,255 Z M871.5,255 C870.671573,255 870,254.328427 870,253.5 C870,252.671573 870.671573,252 871.5,252 C872.328427,252 873,252.671573 873,253.5 C873,254.328427 872.328427,255 871.5,255 Z M877.5,255 C876.671573,255 876,254.328427 876,253.5 C876,252.671573 876.671573,252 877.5,252 C878.328427,252 879,252.671573 879,253.5 C879,254.328427 878.328427,255 877.5,255 Z M883.5,255 C882.671573,255 882,254.328427 882,253.5 C882,252.671573 882.671573,252 883.5,252 C884.328427,252 885,252.671573 885,253.5 C885,254.328427 884.328427,255 883.5,255 Z M889.5,255 C888.671573,255 888,254.328427 888,253.5 C888,252.671573 888.671573,252 889.5,252 C890.328427,252 891,252.671573 891,253.5 C891,254.328427 890.328427,255 889.5,255 Z M895.5,255 C894.671573,255 894,254.328427 894,253.5 C894,252.671573 894.671573,252 895.5,252 C896.328427,252 897,252.671573 897,253.5 C897,254.328427 896.328427,255 895.5,255 Z M901.5,255 C900.671573,255 900,254.328427 900,253.5 C900,252.671573 900.671573,252 901.5,252 C902.328427,252 903,252.671573 903,253.5 C903,254.328427 902.328427,255 901.5,255 Z M907.5,255 C906.671573,255 906,254.328427 906,253.5 C906,252.671573 906.671573,252 907.5,252 C908.328427,252 909,252.671573 909,253.5 C909,254.328427 908.328427,255 907.5,255 Z M913.5,255 C912.671573,255 912,254.328427 912,253.5 C912,252.671573 912.671573,252 913.5,252 C914.328427,252 915,252.671573 915,253.5 C915,254.328427 914.328427,255 913.5,255 Z M919.5,255 C918.671573,255 918,254.328427 918,253.5 C918,252.671573 918.671573,252 919.5,252 C920.328427,252 921,252.671573 921,253.5 C921,254.328427 920.328427,255 919.5,255 Z M925.5,255 C924.671573,255 924,254.328427 924,253.5 C924,252.671573 924.671573,252 925.5,252 C926.328427,252 927,252.671573 927,253.5 C927,254.328427 926.328427,255 925.5,255 Z M931.5,255 C930.671573,255 930,254.328427 930,253.5 C930,252.671573 930.671573,252 931.5,252 C932.328427,252 933,252.671573 933,253.5 C933,254.328427 932.328427,255 931.5,255 Z M937.5,255 C936.671573,255 936,254.328427 936,253.5 C936,252.671573 936.671573,252 937.5,252 C938.328427,252 939,252.671573 939,253.5 C939,254.328427 938.328427,255 937.5,255 Z M943.5,255 C942.671573,255 942,254.328427 942,253.5 C942,252.671573 942.671573,252 943.5,252 C944.328427,252 945,252.671573 945,253.5 C945,254.328427 944.328427,255 943.5,255 Z M949.5,255 C948.671573,255 948,254.328427 948,253.5 C948,252.671573 948.671573,252 949.5,252 C950.328427,252 951,252.671573 951,253.5 C951,254.328427 950.328427,255 949.5,255 Z M955.5,255 C954.671573,255 954,254.328427 954,253.5 C954,252.671573 954.671573,252 955.5,252 C956.328427,252 957,252.671573 957,253.5 C957,254.328427 956.328427,255 955.5,255 Z M961.5,255 C960.671573,255 960,254.328427 960,253.5 C960,252.671573 960.671573,252 961.5,252 C962.328427,252 963,252.671573 963,253.5 C963,254.328427 962.328427,255 961.5,255 Z M967.5,255 C966.671573,255 966,254.328427 966,253.5 C966,252.671573 966.671573,252 967.5,252 C968.328427,252 969,252.671573 969,253.5 C969,254.328427 968.328427,255 967.5,255 Z M973.5,255 C972.671573,255 972,254.328427 972,253.5 C972,252.671573 972.671573,252 973.5,252 C974.328427,252 975,252.671573 975,253.5 C975,254.328427 974.328427,255 973.5,255 Z M979.5,255 C978.671573,255 978,254.328427 978,253.5 C978,252.671573 978.671573,252 979.5,252 C980.328427,252 981,252.671573 981,253.5 C981,254.328427 980.328427,255 979.5,255 Z M985.5,255 C984.671573,255 984,254.328427 984,253.5 C984,252.671573 984.671573,252 985.5,252 C986.328427,252 987,252.671573 987,253.5 C987,254.328427 986.328427,255 985.5,255 Z M991.5,255 C990.671573,255 990,254.328427 990,253.5 C990,252.671573 990.671573,252 991.5,252 C992.328427,252 993,252.671573 993,253.5 C993,254.328427 992.328427,255 991.5,255 Z M997.5,255 C996.671573,255 996,254.328427 996,253.5 C996,252.671573 996.671573,252 997.5,252 C998.328427,252 999,252.671573 999,253.5 C999,254.328427 998.328427,255 997.5,255 Z M1003.5,255 C1002.67157,255 1002,254.328427 1002,253.5 C1002,252.671573 1002.67157,252 1003.5,252 C1004.32843,252 1005,252.671573 1005,253.5 C1005,254.328427 1004.32843,255 1003.5,255 Z M1009.5,255 C1008.67157,255 1008,254.328427 1008,253.5 C1008,252.671573 1008.67157,252 1009.5,252 C1010.32843,252 1011,252.671573 1011,253.5 C1011,254.328427 1010.32843,255 1009.5,255 Z M1015.5,255 C1014.67157,255 1014,254.328427 1014,253.5 C1014,252.671573 1014.67157,252 1015.5,252 C1016.32843,252 1017,252.671573 1017,253.5 C1017,254.328427 1016.32843,255 1015.5,255 Z M1021.5,255 C1020.67157,255 1020,254.328427 1020,253.5 C1020,252.671573 1020.67157,252 1021.5,252 C1022.32843,252 1023,252.671573 1023,253.5 C1023,254.328427 1022.32843,255 1021.5,255 Z M1027.5,255 C1026.67157,255 1026,254.328427 1026,253.5 C1026,252.671573 1026.67157,252 1027.5,252 C1028.32843,252 1029,252.671573 1029,253.5 C1029,254.328427 1028.32843,255 1027.5,255 Z M1033.5,255 C1032.67157,255 1032,254.328427 1032,253.5 C1032,252.671573 1032.67157,252 1033.5,252 C1034.32843,252 1035,252.671573 1035,253.5 C1035,254.328427 1034.32843,255 1033.5,255 Z M1039.5,255 C1038.67157,255 1038,254.328427 1038,253.5 C1038,252.671573 1038.67157,252 1039.5,252 C1040.32843,252 1041,252.671573 1041,253.5 C1041,254.328427 1040.32843,255 1039.5,255 Z M1045.5,255 C1044.67157,255 1044,254.328427 1044,253.5 C1044,252.671573 1044.67157,252 1045.5,252 C1046.32843,252 1047,252.671573 1047,253.5 C1047,254.328427 1046.32843,255 1045.5,255 Z M1051.5,255 C1050.67157,255 1050,254.328427 1050,253.5 C1050,252.671573 1050.67157,252 1051.5,252 C1052.32843,252 1053,252.671573 1053,253.5 C1053,254.328427 1052.32843,255 1051.5,255 Z M1057.5,255 C1056.67157,255 1056,254.328427 1056,253.5 C1056,252.671573 1056.67157,252 1057.5,252 C1058.32843,252 1059,252.671573 1059,253.5 C1059,254.328427 1058.32843,255 1057.5,255 Z M1063.5,255 C1062.67157,255 1062,254.328427 1062,253.5 C1062,252.671573 1062.67157,252 1063.5,252 C1064.32843,252 1065,252.671573 1065,253.5 C1065,254.328427 1064.32843,255 1063.5,255 Z M1069.5,255 C1068.67157,255 1068,254.328427 1068,253.5 C1068,252.671573 1068.67157,252 1069.5,252 C1070.32843,252 1071,252.671573 1071,253.5 C1071,254.328427 1070.32843,255 1069.5,255 Z M1075.5,255 C1074.67157,255 1074,254.328427 1074,253.5 C1074,252.671573 1074.67157,252 1075.5,252 C1076.32843,252 1077,252.671573 1077,253.5 C1077,254.328427 1076.32843,255 1075.5,255 Z M1081.5,255 C1080.67157,255 1080,254.328427 1080,253.5 C1080,252.671573 1080.67157,252 1081.5,252 C1082.32843,252 1083,252.671573 1083,253.5 C1083,254.328427 1082.32843,255 1081.5,255 Z M1087.5,255 C1086.67157,255 1086,254.328427 1086,253.5 C1086,252.671573 1086.67157,252 1087.5,252 C1088.32843,252 1089,252.671573 1089,253.5 C1089,254.328427 1088.32843,255 1087.5,255 Z M1093.5,255 C1092.67157,255 1092,254.328427 1092,253.5 C1092,252.671573 1092.67157,252 1093.5,252 C1094.32843,252 1095,252.671573 1095,253.5 C1095,254.328427 1094.32843,255 1093.5,255 Z M1099.5,255 C1098.67157,255 1098,254.328427 1098,253.5 C1098,252.671573 1098.67157,252 1099.5,252 C1100.32843,252 1101,252.671573 1101,253.5 C1101,254.328427 1100.32843,255 1099.5,255 Z M1105.5,255 C1104.67157,255 1104,254.328427 1104,253.5 C1104,252.671573 1104.67157,252 1105.5,252 C1106.32843,252 1107,252.671573 1107,253.5 C1107,254.328427 1106.32843,255 1105.5,255 Z M1111.5,255 C1110.67157,255 1110,254.328427 1110,253.5 C1110,252.671573 1110.67157,252 1111.5,252 C1112.32843,252 1113,252.671573 1113,253.5 C1113,254.328427 1112.32843,255 1111.5,255 Z M1117.5,255 C1116.67157,255 1116,254.328427 1116,253.5 C1116,252.671573 1116.67157,252 1117.5,252 C1118.32843,252 1119,252.671573 1119,253.5 C1119,254.328427 1118.32843,255 1117.5,255 Z M1123.5,255 C1122.67157,255 1122,254.328427 1122,253.5 C1122,252.671573 1122.67157,252 1123.5,252 C1124.32843,252 1125,252.671573 1125,253.5 C1125,254.328427 1124.32843,255 1123.5,255 Z M1129.5,255 C1128.67157,255 1128,254.328427 1128,253.5 C1128,252.671573 1128.67157,252 1129.5,252 C1130.32843,252 1131,252.671573 1131,253.5 C1131,254.328427 1130.32843,255 1129.5,255 Z M1135.5,255 C1134.67157,255 1134,254.328427 1134,253.5 C1134,252.671573 1134.67157,252 1135.5,252 C1136.32843,252 1137,252.671573 1137,253.5 C1137,254.328427 1136.32843,255 1135.5,255 Z M1141.5,255 C1140.67157,255 1140,254.328427 1140,253.5 C1140,252.671573 1140.67157,252 1141.5,252 C1142.32843,252 1143,252.671573 1143,253.5 C1143,254.328427 1142.32843,255 1141.5,255 Z M1147.5,255 C1146.67157,255 1146,254.328427 1146,253.5 C1146,252.671573 1146.67157,252 1147.5,252 C1148.32843,252 1149,252.671573 1149,253.5 C1149,254.328427 1148.32843,255 1147.5,255 Z M1153.5,255 C1152.67157,255 1152,254.328427 1152,253.5 C1152,252.671573 1152.67157,252 1153.5,252 C1154.32843,252 1155,252.671573 1155,253.5 C1155,254.328427 1154.32843,255 1153.5,255 Z M1159.5,255 C1158.67157,255 1158,254.328427 1158,253.5 C1158,252.671573 1158.67157,252 1159.5,252 C1160.32843,252 1161,252.671573 1161,253.5 C1161,254.328427 1160.32843,255 1159.5,255 Z M1165.5,255 C1164.67157,255 1164,254.328427 1164,253.5 C1164,252.671573 1164.67157,252 1165.5,252 C1166.32843,252 1167,252.671573 1167,253.5 C1167,254.328427 1166.32843,255 1165.5,255 Z M1171.5,255 C1170.67157,255 1170,254.328427 1170,253.5 C1170,252.671573 1170.67157,252 1171.5,252 C1172.32843,252 1173,252.671573 1173,253.5 C1173,254.328427 1172.32843,255 1171.5,255 Z M1177.5,255 C1176.67157,255 1176,254.328427 1176,253.5 C1176,252.671573 1176.67157,252 1177.5,252 C1178.32843,252 1179,252.671573 1179,253.5 C1179,254.328427 1178.32843,255 1177.5,255 Z M1183.5,255 C1182.67157,255 1182,254.328427 1182,253.5 C1182,252.671573 1182.67157,252 1183.5,252 C1184.32843,252 1185,252.671573 1185,253.5 C1185,254.328427 1184.32843,255 1183.5,255 Z M1189.5,255 C1188.67157,255 1188,254.328427 1188,253.5 C1188,252.671573 1188.67157,252 1189.5,252 C1190.32843,252 1191,252.671573 1191,253.5 C1191,254.328427 1190.32843,255 1189.5,255 Z M1195.5,255 C1194.67157,255 1194,254.328427 1194,253.5 C1194,252.671573 1194.67157,252 1195.5,252 C1196.32843,252 1197,252.671573 1197,253.5 C1197,254.328427 1196.32843,255 1195.5,255 Z M1201.5,255 C1200.67157,255 1200,254.328427 1200,253.5 C1200,252.671573 1200.67157,252 1201.5,252 C1202.32843,252 1203,252.671573 1203,253.5 C1203,254.328427 1202.32843,255 1201.5,255 Z M1207.5,255 C1206.67157,255 1206,254.328427 1206,253.5 C1206,252.671573 1206.67157,252 1207.5,252 C1208.32843,252 1209,252.671573 1209,253.5 C1209,254.328427 1208.32843,255 1207.5,255 Z M1213.5,255 C1212.67157,255 1212,254.328427 1212,253.5 C1212,252.671573 1212.67157,252 1213.5,252 C1214.32843,252 1215,252.671573 1215,253.5 C1215,254.328427 1214.32843,255 1213.5,255 Z M1219.5,255 C1218.67157,255 1218,254.328427 1218,253.5 C1218,252.671573 1218.67157,252 1219.5,252 C1220.32843,252 1221,252.671573 1221,253.5 C1221,254.328427 1220.32843,255 1219.5,255 Z M1225.5,255 C1224.67157,255 1224,254.328427 1224,253.5 C1224,252.671573 1224.67157,252 1225.5,252 C1226.32843,252 1227,252.671573 1227,253.5 C1227,254.328427 1226.32843,255 1225.5,255 Z M1231.5,255 C1230.67157,255 1230,254.328427 1230,253.5 C1230,252.671573 1230.67157,252 1231.5,252 C1232.32843,252 1233,252.671573 1233,253.5 C1233,254.328427 1232.32843,255 1231.5,255 Z M1237.5,255 C1236.67157,255 1236,254.328427 1236,253.5 C1236,252.671573 1236.67157,252 1237.5,252 C1238.32843,252 1239,252.671573 1239,253.5 C1239,254.328427 1238.32843,255 1237.5,255 Z M1243.5,255 C1242.67157,255 1242,254.328427 1242,253.5 C1242,252.671573 1242.67157,252 1243.5,252 C1244.32843,252 1245,252.671573 1245,253.5 C1245,254.328427 1244.32843,255 1243.5,255 Z M1249.5,255 C1248.67157,255 1248,254.328427 1248,253.5 C1248,252.671573 1248.67157,252 1249.5,252 C1250.32843,252 1251,252.671573 1251,253.5 C1251,254.328427 1250.32843,255 1249.5,255 Z M1255.5,255 C1254.67157,255 1254,254.328427 1254,253.5 C1254,252.671573 1254.67157,252 1255.5,252 C1256.32843,252 1257,252.671573 1257,253.5 C1257,254.328427 1256.32843,255 1255.5,255 Z M1261.5,255 C1260.67157,255 1260,254.328427 1260,253.5 C1260,252.671573 1260.67157,252 1261.5,252 C1262.32843,252 1263,252.671573 1263,253.5 C1263,254.328427 1262.32843,255 1261.5,255 Z M1267.5,255 C1266.67157,255 1266,254.328427 1266,253.5 C1266,252.671573 1266.67157,252 1267.5,252 C1268.32843,252 1269,252.671573 1269,253.5 C1269,254.328427 1268.32843,255 1267.5,255 Z M1273.5,255 C1272.67157,255 1272,254.328427 1272,253.5 C1272,252.671573 1272.67157,252 1273.5,252 C1274.32843,252 1275,252.671573 1275,253.5 C1275,254.328427 1274.32843,255 1273.5,255 Z M1279.5,255 C1278.67157,255 1278,254.328427 1278,253.5 C1278,252.671573 1278.67157,252 1279.5,252 C1280.32843,252 1281,252.671573 1281,253.5 C1281,254.328427 1280.32843,255 1279.5,255 Z M1285.5,255 C1284.67157,255 1284,254.328427 1284,253.5 C1284,252.671573 1284.67157,252 1285.5,252 C1286.32843,252 1287,252.671573 1287,253.5 C1287,254.328427 1286.32843,255 1285.5,255 Z M1291.5,255 C1290.67157,255 1290,254.328427 1290,253.5 C1290,252.671573 1290.67157,252 1291.5,252 C1292.32843,252 1293,252.671573 1293,253.5 C1293,254.328427 1292.32843,255 1291.5,255 Z M1297.5,255 C1296.67157,255 1296,254.328427 1296,253.5 C1296,252.671573 1296.67157,252 1297.5,252 C1298.32843,252 1299,252.671573 1299,253.5 C1299,254.328427 1298.32843,255 1297.5,255 Z M1303.5,255 C1302.67157,255 1302,254.328427 1302,253.5 C1302,252.671573 1302.67157,252 1303.5,252 C1304.32843,252 1305,252.671573 1305,253.5 C1305,254.328427 1304.32843,255 1303.5,255 Z M1309.5,255 C1308.67157,255 1308,254.328427 1308,253.5 C1308,252.671573 1308.67157,252 1309.5,252 C1310.32843,252 1311,252.671573 1311,253.5 C1311,254.328427 1310.32843,255 1309.5,255 Z M1315.5,255 C1314.67157,255 1314,254.328427 1314,253.5 C1314,252.671573 1314.67157,252 1315.5,252 C1316.32843,252 1317,252.671573 1317,253.5 C1317,254.328427 1316.32843,255 1315.5,255 Z M1321.5,255 C1320.67157,255 1320,254.328427 1320,253.5 C1320,252.671573 1320.67157,252 1321.5,252 C1322.32843,252 1323,252.671573 1323,253.5 C1323,254.328427 1322.32843,255 1321.5,255 Z M1327.5,255 C1326.67157,255 1326,254.328427 1326,253.5 C1326,252.671573 1326.67157,252 1327.5,252 C1328.32843,252 1329,252.671573 1329,253.5 C1329,254.328427 1328.32843,255 1327.5,255 Z M1333.5,255 C1332.67157,255 1332,254.328427 1332,253.5 C1332,252.671573 1332.67157,252 1333.5,252 C1334.32843,252 1335,252.671573 1335,253.5 C1335,254.328427 1334.32843,255 1333.5,255 Z M1339.5,255 C1338.67157,255 1338,254.328427 1338,253.5 C1338,252.671573 1338.67157,252 1339.5,252 C1340.32843,252 1341,252.671573 1341,253.5 C1341,254.328427 1340.32843,255 1339.5,255 Z M1345.5,255 C1344.67157,255 1344,254.328427 1344,253.5 C1344,252.671573 1344.67157,252 1345.5,252 C1346.32843,252 1347,252.671573 1347,253.5 C1347,254.328427 1346.32843,255 1345.5,255 Z M1351.5,255 C1350.67157,255 1350,254.328427 1350,253.5 C1350,252.671573 1350.67157,252 1351.5,252 C1352.32843,252 1353,252.671573 1353,253.5 C1353,254.328427 1352.32843,255 1351.5,255 Z M1357.5,255 C1356.67157,255 1356,254.328427 1356,253.5 C1356,252.671573 1356.67157,252 1357.5,252 C1358.32843,252 1359,252.671573 1359,253.5 C1359,254.328427 1358.32843,255 1357.5,255 Z M1363.5,255 C1362.67157,255 1362,254.328427 1362,253.5 C1362,252.671573 1362.67157,252 1363.5,252 C1364.32843,252 1364.32843,255 1363.5,255 Z" id="形状结合"></path>
            </g>
        </g>
    </g>
</svg>