<?xml version="1.0" encoding="UTF-8"?>
<svg width="110px" height="44px" viewBox="0 0 110 44" version="1.1" xmlns="http://www.w3.org/2000/svg" xmlns:xlink="http://www.w3.org/1999/xlink">
    <!-- Generator: Sketch 54 (76480) - https://sketchapp.com -->
    <title>bw_logo_gold@1x</title>
    <desc>Created with Sketch.</desc>
    <g id="首屏" stroke="none" stroke-width="1" fill="none" fill-rule="evenodd">
        <g id="首屏_交互" transform="translate(-905.000000, -20.000000)" fill="#E0C9B2">
            <g id="top_banner_hidden" transform="translate(905.000000, 20.000000)">
                <path d="M49.6078431,6.47192536 C51.0369252,7.71071852 53.4874009,6.33173861 54.2770711,8.10660305 L57.2967175,14.8895678 L61.0245688,8.06690731 C61.0614998,8.00432394 61.1085686,7.94567438 61.1527409,7.89489244 C61.3859126,7.62524751 61.6263257,7.44608026 62.0054108,7.31662208 C63.3570104,6.85457798 64.6514032,7.46789503 65.7843137,6.43902439 L57.0925112,22.3473601 C56.5273232,23.2778854 55.2376372,23.150573 54.1746058,23.1384139 C53.1611777,23.1266125 52.8784027,23.414496 52.5322657,23.6097561 L54.9262588,19.2507348 L56.8658567,15.692423 C56.6239953,15.5196929 56.2883584,15.3845129 55.8643768,15.3251481 C54.7394318,15.1670803 53.6162971,15.146696 52.9457473,13.9694134 L49.6078431,6.47192536 Z M102.990196,10.3006786 C100.795647,10.3006786 99.0159192,11.935365 99.0159192,13.9510508 C99.0159192,15.9674115 100.795647,17.6020979 102.990196,17.6020979 C105.184745,17.6020979 106.964827,15.9674115 106.964827,13.9510508 C106.964827,11.935365 105.184745,10.3006786 102.990196,10.3006786 Z M102.990196,7.51219512 C106.861033,7.51219512 110,10.3958441 110,13.9510508 C110,17.5069324 106.861033,20.3902439 102.990196,20.3902439 C99.1193588,20.3902439 95.9803922,17.5069324 95.9803922,13.9510508 C95.9803922,10.3958441 99.1193588,7.51219512 102.990196,7.51219512 Z M72.7835069,7.51219512 C75.9607141,7.51219512 78.6438148,9.46140006 79.4979788,12.1304205 C79.7480384,12.9119923 79.8039216,13.6382196 79.8039216,14.4221536 L79.8039216,20.2353469 L76.7816311,20.2353469 L76.7816311,19.2357719 L76.7816311,14.9836974 C76.7816311,14.4167542 76.7982546,13.7870422 76.6709258,13.2153744 C76.3006112,11.5520034 74.7008664,10.3006786 72.7835069,10.3006786 C70.5923905,10.3006786 68.8150928,11.935365 68.8150928,13.9510508 C68.8150928,15.967074 70.5923905,17.6017604 72.7835069,17.6017604 C72.9568156,17.6017604 73.128002,17.5916365 73.2952979,17.571726 C73.3069697,17.5703761 73.3189952,17.5690262 73.3310207,17.5673389 C73.3501201,17.5649766 73.3688657,17.5626144 73.387965,17.5599146 L73.3886724,17.5595772 C73.6808212,17.5184063 73.962713,17.4478758 74.2301035,17.3513605 C75.0061018,17.0898242 75.6204632,16.6889143 75.9950221,16.4027429 L75.9950221,16.4169165 C75.8638027,16.6153467 75.689433,16.8610221 75.563519,17.1309951 C75.423811,17.4323524 75.3696962,17.7900666 75.3785385,18.0175188 C75.4008211,18.585137 75.4209815,18.9900965 75.0195421,19.4827972 C74.3210021,20.3402989 73.0098692,20.3878816 72.8093264,20.3902439 L72.8089727,20.3902439 L72.7835069,20.3902439 C68.9187243,20.3902439 65.7843137,17.5069324 65.7843137,13.9510508 C65.7843137,10.3955066 68.9187243,7.51219512 72.7835069,7.51219512 Z M87.8219337,7.24365805 C91.7311404,7.24365805 94.9019608,10.4279422 94.9019608,14.3537174 C94.9019608,18.2798546 91.7311404,21.4634146 87.8219337,21.4634146 C85.6582251,21.4634146 83.7215252,20.4887594 82.4234391,18.9521929 C81.7316364,18.1346701 80.7220911,17.077104 81.2310354,15.9025937 C81.4145891,15.4786259 81.4896792,15.053572 81.4924604,14.6513276 C81.5004561,13.4453184 80.8865246,12.2519812 80.8865246,12.2519812 L82.5346837,14.2519796 C83.3575465,15.2501685 84.0083278,16.2505297 84.8603923,17.1582046 C85.0922679,17.4047648 85.3543881,17.6227226 85.6408431,17.805561 L85.6415384,17.8062851 L85.6415384,17.8059231 C86.2714613,18.2081675 87.0195816,18.4416937 87.8219337,18.4416937 C90.069771,18.4416937 91.8924452,16.6111377 91.8924452,14.3537174 C91.8924452,12.0962971 90.069771,10.2661031 87.8219337,10.2661031 C85.9179118,10.2661031 84.3507527,11.4442339 83.9572248,13.0293159 L82.5795292,11.3577025 L82.1143875,10.7936189 L80.8823529,9.29832689 L80.8823529,3.56227078 C80.8823529,1.89572617 81.587366,1.77371324 82.6970314,1.24221476 C83.4823491,0.866400446 83.766023,0 83.766023,0 L83.766023,8.52606105 C84.9149717,7.71795165 86.313178,7.24365805 87.8219337,7.24365805 Z M21.1490504,17.7363961 L23.190732,16.6869259 L23.4356103,14.9364097 L21.8126912,13.8540561 L20.014859,14.2070279 L19.7305395,16.5511945 L19.7319114,16.5504948 L21.1490504,17.7363961 Z M24.8177667,14.4784908 L24.6219326,12.5313738 C24.3643645,12.348766 23.779949,11.9408719 23.4352674,11.7390238 L21.8178357,12.1332748 L21.8483598,13.6630525 L23.6122383,14.8391588 L24.8177667,14.4784908 Z M21.0334706,19.1738205 L22.5528137,19.9563754 L24.1194862,18.9796685 L24.4027768,17.6398449 L23.2703003,16.8478447 L21.1919212,17.9165552 L21.0334706,19.1738205 Z M18.8816966,13.2124799 L17.4223727,14.3144237 L17.4223727,16.0236608 L18.5287837,17.3442441 L19.5367633,16.6785302 L19.839603,14.1884872 L18.8816966,13.2124799 Z M19.9280884,11.7967447 L19.9092253,11.8047906 L19.6578306,11.0456738 C18.5212384,11.5616633 17.6137482,12.5068862 17.1318798,13.6794942 L17.4048814,14.1041798 L18.7558278,13.0837449 L18.7475966,13.0742997 L19.9280884,11.7967447 Z M20.0711056,11.7320273 L20.0707626,11.7323771 L21.7989726,11.9520662 L23.1825008,11.6148365 L23.1207668,10.8494229 C22.6546748,10.6989988 22.1580588,10.6171402 21.6432656,10.6171402 C20.997802,10.6171402 20.3804617,10.7448257 19.8166242,10.9774583 L20.0711056,11.7320273 Z M25.6720971,16.0999223 L25.6792994,16.047099 L26.4935027,16.2349541 C26.5192252,16.0282085 26.5326009,15.8179646 26.5326009,15.6042225 C26.5326009,14.3619996 26.0864011,13.2264729 25.3503942,12.3522642 L24.8057629,12.5978402 L24.9899361,14.4274166 L24.9943946,14.426717 L25.6720971,16.0999223 Z M26.4684661,16.4126644 L25.7084516,16.233205 L25.6916462,16.3608905 L25.6381434,16.3538941 L25.6474035,16.2853287 L24.5924375,17.5975163 L24.2892548,19.0286438 L24.90831,19.259877 L24.9484371,19.2787675 C25.7376038,18.5392408 26.2880656,17.5394456 26.4684661,16.4126644 Z M18.9338275,19.7548772 L19.187623,19.2423859 L18.5373579,17.6328484 L17.3781299,16.2475478 L16.8616219,16.6473959 C17.1315368,17.9392937 17.8912083,19.0450855 18.9338275,19.7548772 Z M19.0960509,19.8237924 L18.9458314,19.7629231 C19.7188787,20.2862589 20.646261,20.5913049 21.6432656,20.5913049 C21.8435582,20.5913049 22.0404212,20.5787113 22.2348834,20.5542236 L22.4128832,20.0854603 L20.883937,19.2983576 L19.3200082,19.3665732 L19.0960509,19.8237924 Z M21.6432656,10.4096949 C24.4559367,10.4096949 26.7359803,12.7356707 26.7359803,15.6042225 C26.7359803,18.4724246 24.4559367,20.7987502 21.6432656,20.7987502 C18.8309375,20.7987502 16.5508939,18.4724246 16.5508939,15.6042225 C16.5508939,12.7356707 18.8309375,10.4096949 21.6432656,10.4096949 Z M21.6477242,10.0000517 C18.6196699,10.0000517 16.1643703,12.5047872 16.1643703,15.593378 C16.1643703,18.6819688 18.6196699,21.1863545 21.6477242,21.1863545 C24.6757784,21.1863545 27.131764,18.6819688 27.131764,15.593378 C27.131764,12.5047872 24.6757784,10.0000517 21.6477242,10.0000517 Z M17.3167389,22.1948954 C16.5227706,21.6824041 14.5651159,20.5468773 14.3044611,19.3910608 C14.3044611,20.7718138 14.3085767,22.1448706 14.3085767,23.5231748 C14.243413,24.8213694 15.4184174,25.5871329 15.4184174,25.5871329 C15.9376692,26.010769 16.7614756,26.4889776 17.4988543,27.0696844 C18.649851,27.9767765 19.105311,28.803759 19.105311,30.2467805 L19.105311,35.4066757 L19.7857572,35.4066757 L21.0633087,35.4066757 L21.1490504,35.4066757 L21.1490504,29.784314 C21.1552238,28.1086599 21.1370465,26.4826808 21.0633087,25.5871329 C21.0022606,24.8486557 20.6867311,24.4215213 20.2199532,24.0640018 C19.3333839,23.386044 18.2478939,22.7955421 17.3167389,22.1948954 Z M26.1066361,22.1948954 C25.1754811,22.7955421 24.0899911,23.386044 23.2034218,24.0640018 C22.7366439,24.4215213 22.4211144,24.8486557 22.3604093,25.5871329 C22.2863284,26.4826808 22.2681512,28.1086599 22.2743246,29.784314 L22.2743246,35.4066757 L22.3604093,35.4066757 L23.6372748,35.4066757 L24.318064,35.4066757 L24.318064,30.2467805 C24.318064,28.803759 24.773181,27.9767765 25.9245207,27.0696844 C26.6618994,26.4889776 27.4860488,26.010769 28.0053006,25.5871329 C28.0053006,25.5871329 29.179962,24.8213694 29.1147983,23.5231748 C29.1147983,22.1448706 29.1189139,20.7718138 29.1189139,19.3910608 C28.8586021,20.5468773 26.9006044,21.6824041 26.1066361,22.1948954 Z M7.37378713,5.99527341 L15.0692772,5.99527341 L20.5104461,0.444975363 C21.0928038,-0.148325121 22.0445368,-0.148325121 22.6265515,0.444975363 L28.0677205,5.99527341 L35.7632105,5.99527341 C36.585645,5.99527341 37.2592319,6.68197674 37.2592319,7.5215529 L37.2592319,15.3705405 L42.7007439,20.9204887 C43.2827586,21.514139 43.2827586,22.4852488 42.7007439,23.0785493 L37.2592319,28.6291971 L37.2592319,36.4781847 C37.2592319,37.3177609 36.585645,38.0044642 35.7632105,38.0044642 L28.0677205,38.0044642 L22.6265515,43.5547623 C22.0445368,44.1484126 21.0928038,44.1484126 20.5104461,43.5547623 L15.0692772,38.0044642 L7.37378713,38.0044642 C6.55100967,38.0044642 5.87776576,37.3177609 5.87776576,36.4781847 L5.87776576,28.6291971 L0.436253825,23.0785493 C-0.145417942,22.4852488 -0.145417942,21.514139 0.436253825,20.9204887 L5.87776576,15.3705405 L5.87776576,7.5215529 C5.87776576,6.68197674 6.55100967,5.99527341 7.37378713,5.99527341 Z M65.0835883,37.9651568 L51.7647059,37.9651568 L51.7647059,36.8501742 L55.7024624,36.8501742 L55.7024624,27.7073171 L52.112155,27.7073171 L52.112155,26.4808362 L64.7361392,26.4808362 L64.7361392,27.7073171 L61.1458317,27.7073171 L61.1458317,36.8501742 L65.0835883,36.8501742 L65.0835883,37.9651568 Z M59.350678,36.8501742 L59.350678,27.7073171 L57.4976161,27.7073171 L57.4976161,36.8501742 L59.350678,36.8501742 Z M54.949656,34.5644599 L53.4440432,34.5644599 C52.9421723,33.2264808 52.536815,31.4425087 52.2279714,29.2125436 L53.9073087,29.2125436 C54.0231251,31.14518 54.3705742,32.9291521 54.949656,34.5644599 Z M63.3463427,34.5644599 L61.8986381,34.5644599 C62.47772,32.9291521 62.8251691,31.14518 62.9409855,29.2125436 L64.5624146,29.2125436 C64.3307819,31.2195122 63.9254246,33.0034843 63.3463427,34.5644599 Z M72.2642031,33.7839721 L70.7006822,33.7839721 L70.7006822,28.3763066 L74.1751732,28.3763066 L74.1751732,27.7073171 L70.2374167,27.7073171 L70.2374167,26.7595819 L74.1751732,26.7595819 L74.1751732,25.7560976 L75.8545106,25.7560976 L75.8545106,26.7595819 L77.1284906,26.7595819 L77.1284906,25.8675958 L78.6920116,25.8675958 L78.6920116,26.7595819 L79.8501753,26.7595819 L79.8501753,27.7073171 L75.8545106,27.7073171 L75.8545106,28.3763066 L79.2710934,28.3763066 L79.2710934,33.7839721 L77.7075725,33.7839721 L77.7075725,32.9477352 L75.8545106,32.9477352 L75.8545106,33.728223 L74.1751732,33.728223 L74.1751732,32.9477352 L72.2642031,32.9477352 L72.2642031,33.7839721 Z M69.3108857,38.6341463 L67.5736402,38.6341463 L67.5736402,29.9372822 L66.4733847,29.9372822 L66.4733847,28.7665505 L67.5736402,28.7665505 L67.5736402,25.7560976 L69.3108857,25.7560976 L69.3108857,28.7665505 L70.2374167,28.7665505 L70.2374167,29.9372822 L69.3108857,29.9372822 L69.3108857,38.6341463 Z M74.1751732,30.1602787 L74.1751732,29.3240418 L72.2642031,29.3240418 L72.2642031,30.1602787 L74.1751732,30.1602787 Z M77.7075725,30.1602787 L77.7075725,29.3240418 L75.8545106,29.3240418 L75.8545106,30.1602787 L77.7075725,30.1602787 Z M74.1751732,32.0557491 L74.1751732,31.0522648 L72.2642031,31.0522648 L72.2642031,32.0557491 L74.1751732,32.0557491 Z M77.7075725,32.0557491 L77.7075725,31.0522648 L75.8545106,31.0522648 L75.8545106,32.0557491 L77.7075725,32.0557491 Z M76.4915006,38.466899 L75.1596123,38.466899 L75.1596123,37.3519164 L75.8545106,37.3519164 C76.3949869,37.3890825 76.6459224,37.1660859 76.607317,36.6829268 L76.607317,35.5121951 L69.9478758,35.5121951 L69.9478758,34.4529617 L76.607317,34.4529617 L76.607317,33.8397213 L78.3445625,33.8397213 L78.3445625,34.4529617 L80.0238998,34.4529617 L80.0238998,35.5121951 L78.3445625,35.5121951 L78.3445625,36.7944251 C78.3831679,37.9465738 77.7654806,38.504065 76.4915006,38.466899 Z M73.8277241,37.7421603 L72.0904786,37.7421603 C71.9746622,37.1475029 71.7623322,36.5342625 71.4534885,35.902439 L73.0170095,35.902439 C73.4030641,36.4970964 73.6733023,37.1103368 73.8277241,37.7421603 Z M91.4318121,35.2891986 L89.9841075,35.2891986 L89.9841075,34.1184669 L90.7369139,34.1184669 C91.3159958,34.155633 91.586234,33.8768873 91.5476285,33.28223 L91.5476285,28.0418118 L85.0040037,28.0418118 C84.2318946,28.8966318 83.0351254,29.5098722 81.4136963,29.8815331 L81.4136963,28.8780488 C82.8807036,28.2833914 83.8072345,27.261324 84.1932891,25.8118467 L86.1621674,25.8118467 C86.046351,26.1835075 85.9112319,26.5180023 85.7568101,26.815331 L93.4585986,26.815331 L93.4585986,33.28223 C93.497204,34.6202091 92.8216086,35.2891986 91.4318121,35.2891986 Z M92.5899758,38.2439024 L84.8881873,38.2439024 C83.5369963,38.2810685 82.8807036,37.6678281 82.919309,36.4041812 L82.919309,29.5470383 L89.6366584,29.5470383 L89.6366584,32.5017422 C89.6752639,33.8025552 89.0382739,34.4343786 87.7256883,34.3972125 L84.7723709,34.3972125 L84.7723709,36.1811847 C84.7337655,36.8501742 85.0619119,37.1660859 85.7568101,37.1289199 L92.1846185,37.1289199 C92.8023058,37.1660859 93.0918468,36.9059233 93.0532413,36.3484321 L93.0532413,35.8466899 L94.5588541,35.8466899 L94.5588541,36.4599303 C94.5974595,37.6864111 93.9411668,38.2810685 92.5899758,38.2439024 Z M87.1466065,33.2264808 C87.7256883,33.2264808 87.9959265,32.9849013 87.9573211,32.5017422 L87.9573211,30.71777 L84.7723709,30.71777 L84.7723709,33.2264808 L87.1466065,33.2264808 Z M106.777481,38.466899 L105.793042,38.466899 L105.793042,37.2961672 L106.314216,37.2961672 C106.931903,37.3333333 107.221444,37.0731707 107.182838,36.5156794 L107.182838,27.6515679 L98.612427,27.6515679 L98.612427,38.466899 L96.8751815,38.466899 L96.8751815,26.4250871 L108.920084,26.4250871 L108.920084,36.4599303 C108.958689,37.8350755 108.244488,38.504065 106.777481,38.466899 Z M102.839724,36.8501742 C102.106221,35.9581882 101.469231,35.1405343 100.928754,34.3972125 C100.504094,35.1405343 99.886407,35.9581882 99.0756925,36.8501742 L99.0756925,35.4006969 C99.6161689,34.583043 100.040829,33.8583043 100.349673,33.2264808 C99.7319852,31.9628339 99.2880225,30.3461092 99.0177843,28.3763066 L100.233856,28.3763066 C100.465489,29.6399535 100.716424,30.71777 100.986663,31.6097561 C101.17969,31.0150987 101.39202,30.0116144 101.623653,28.5993031 C101.623653,28.6736353 101.642955,28.5993031 101.681561,28.3763066 L102.897633,28.3763066 C102.550184,30.5319396 102.106221,32.1486643 101.565744,33.2264808 C101.913193,33.8954704 102.337854,34.6202091 102.839724,35.4006969 L102.839724,36.8501742 Z M106.719573,36.8501742 C105.908858,35.9953542 105.291171,35.1591173 104.866511,34.3414634 C104.480456,35.0847851 103.882072,35.9210221 103.071357,36.8501742 L103.071357,35.4006969 C103.109963,35.3635308 103.148568,35.3077816 103.187174,35.2334495 C103.689044,34.3414634 104.055796,33.6724739 104.287429,33.2264808 C103.708347,31.8885017 103.283687,30.271777 103.013449,28.3763066 L104.171613,28.3763066 C104.36464,29.6399535 104.596273,30.7363531 104.866511,31.6655052 C105.175355,30.6620209 105.406987,29.5842044 105.561409,28.4320557 L106.777481,28.4320557 C106.430032,30.5505226 105.986069,32.1486643 105.445593,33.2264808 C105.793042,33.8954704 106.217702,34.6202091 106.719573,35.4006969 L106.719573,36.8501742 Z" id="bw_logo_gold"></path>
            </g>
        </g>
    </g>
</svg>